<svg width="1200" height="300" viewBox="0 0 1200 300" xmlns="http://www.w3.org/2000/svg">
  <defs>
    <linearGradient id="sky" x1="0" y1="0" x2="0" y2="1">
      <stop offset="0%" stop-color="#05060a"/>
      <stop offset="55%" stop-color="#12162a"/>
      <stop offset="100%" stop-color="#1c2138"/>
    </linearGradient>
    <radialGradient id="moonGlow" cx="50%" cy="50%" r="50%">
      <stop offset="0%" stop-color="#e8eaf2" stop-opacity="0.55"/>
      <stop offset="100%" stop-color="#e8eaf2" stop-opacity="0"/>
    </radialGradient>
  </defs>

  <rect width="1200" height="300" fill="url(#sky)"/>

  <g fill="#f2f3f7" opacity="0.55">
    <circle cx="120" cy="45" r="1.4"/>
    <circle cx="220" cy="80" r="1"/>
    <circle cx="340" cy="35" r="1.6"/>
    <circle cx="470" cy="65" r="1"/>
    <circle cx="80" cy="110" r="1"/>
    <circle cx="760" cy="40" r="1.3"/>
    <circle cx="860" cy="90" r="1"/>
    <circle cx="1150" cy="55" r="1.4"/>
    <circle cx="1080" cy="120" r="1"/>
    <circle cx="640" cy="20" r="1"/>
  </g>

  <circle cx="990" cy="65" r="60" fill="url(#moonGlow)"/>
  <circle cx="990" cy="65" r="26" fill="#eef0f6"/>

  <polygon points="0,220 90,150 180,205 260,140 350,210 430,160 520,215 600,170 690,215 780,155 870,210 960,165 1050,215 1140,175 1200,210 1200,300 0,300"
           fill="#2a3155" opacity="0.75"/>

  <polygon points="0,260 110,190 210,245 300,180 400,250 500,195 600,255 710,200 810,250 900,205 1000,255 1100,210 1200,250 1200,300 0,300"
           fill="#181d33" opacity="0.9"/>

  <polygon points="0,300 0,280 100,215 190,270 290,205 380,275 470,220 560,280 660,225 760,278 860,215 960,275 1060,225 1160,270 1200,240 1200,300"
           fill="#0c0e18"/>

  <text x="600" y="128" text-anchor="middle" font-family="Trebuchet MS, Verdana, sans-serif" font-size="36" font-weight="700" fill="#f5f6fa">
    Welcome to Ganes's GitHub
  </text>
  <text x="600" y="164" text-anchor="middle" font-family="Consolas, Menlo, monospace" font-size="18" letter-spacing="2" fill="#8b90a8">
    &lt;/&gt;
  </text>
</svg>
